<?xml version="1.0" encoding="utf-8"?>
<svg version="1.1" xmlns="http://www.w3.org/2000/svg" width="512" height="512">
<path d="M0 0 C1.41432448 -0.00302621 2.82864732 -0.00691803 4.24296731 -0.01159257 C8.10185429 -0.02182091 11.96064783 -0.01970401 15.81954229 -0.01541197 C19.99212657 -0.0129353 24.16468889 -0.02197057 28.33726501 -0.02944946 C36.50132125 -0.04217256 44.66534456 -0.04399313 52.82940904 -0.0416492 C59.46852319 -0.03986315 66.10762738 -0.04162183 72.74674034 -0.04587364 C73.69315674 -0.04646883 74.63957313 -0.04706402 75.61466881 -0.04767724 C77.5375827 -0.04888905 79.46049659 -0.05010318 81.38341048 -0.05131962 C99.40042998 -0.06218602 117.41743075 -0.06003697 135.4344513 -0.05393478 C151.89779385 -0.04876682 168.3610772 -0.06001947 184.82440803 -0.07903299 C201.75015521 -0.09842992 218.67587441 -0.10666412 235.60163277 -0.10290974 C245.09564073 -0.10100046 254.58959832 -0.10345857 264.08359718 -0.11762428 C272.16631349 -0.12956272 280.24894843 -0.13091543 288.33166591 -0.11883412 C292.45089666 -0.1129626 296.56997877 -0.11179786 300.68919945 -0.12383652 C304.46876826 -0.13475362 308.24806535 -0.13152355 312.02762177 -0.11757483 C314.02394275 -0.1137088 316.02027608 -0.12442719 318.01656801 -0.13587171 C331.26350655 -0.05735787 345.14193736 1.69026817 355.49980164 10.63569641 C356.61355164 11.93507141 356.61355164 11.93507141 357.74980164 13.26069641 C358.22933289 13.72733704 358.70886414 14.19397766 359.20292664 14.67475891 C366.72437062 22.38613835 369.86870815 33.72763714 369.8812294 44.29287815 C369.88507055 45.51113806 369.88891169 46.72939798 369.89286923 47.98457485 C369.89208905 49.333253 369.89121027 50.6819311 369.89024353 52.03060913 C369.89282806 53.46592823 369.89584146 54.90124662 369.89924693 56.336564 C369.90731011 60.28125277 369.90910613 64.22592334 369.9098444 68.17061937 C369.91169617 72.4250661 369.91924421 76.67950342 369.92597961 80.9339447 C369.93955931 90.23787534 369.94558728 99.54180166 369.94999027 108.84574056 C369.95275369 114.65694155 369.95699127 120.46814088 369.96149445 126.27934074 C369.97368737 142.37337801 369.98398616 158.46741394 369.98736954 174.56145573 C369.9875891 175.5914577 369.98780867 176.62145968 369.98803489 177.68267384 C369.98825317 178.71512467 369.98847144 179.74757551 369.98869634 180.81131274 C369.9891398 182.90340873 369.98958636 184.99550472 369.99003601 187.08760071 C369.99025744 188.12535003 369.99047887 189.16309935 369.99070701 190.23229562 C369.99465334 207.04009307 370.01210224 223.84784711 370.03539553 240.65562779 C370.05912526 257.91791519 370.07157215 275.18018083 370.07273746 292.4424848 C370.07365338 302.13214223 370.07938481 311.82174313 370.09755707 321.51138496 C370.11298004 329.76411175 370.11806562 338.01676454 370.10981897 346.269503 C370.10592004 350.47755885 370.10680485 354.68546579 370.12087631 358.89350319 C370.13366097 362.75215015 370.13237798 366.61053702 370.1202856 370.46918385 C370.11741899 372.51300441 370.12922975 374.55682965 370.14170766 376.60061413 C370.06711848 390.59647921 367.10881559 403.05576688 357.53886414 413.63179016 C348.8738667 421.52110006 337.31467351 425.37835504 325.73603058 425.39212418 C324.52187076 425.39596532 323.30771094 425.39980647 322.0567584 425.40376401 C320.71269951 425.40298382 319.36864068 425.40210505 318.02458191 425.40113831 C316.5941003 425.40372285 315.16361941 425.40673626 313.73313951 425.41014171 C309.80178292 425.41820478 305.8704446 425.4200009 301.93908072 425.42073917 C297.6989299 425.42259099 293.45878853 425.43013908 289.21864319 425.43687439 C279.94563616 425.45045435 270.67263346 425.4564822 261.39961815 425.46088505 C255.60717045 425.46364861 249.81472441 425.46788623 244.02227783 425.47238922 C227.97885493 425.48458254 211.93543336 425.49488102 195.89200592 425.49826431 C194.86522312 425.49848388 193.83844031 425.49870344 192.78054288 425.49892966 C191.75132245 425.49914794 190.72210202 425.49936622 189.6616931 425.49959111 C187.57615375 425.50003458 185.49061441 425.50048114 183.40507507 425.50093079 C182.37057868 425.50115222 181.33608228 425.50137365 180.27023751 425.50160179 C163.51808103 425.50554745 146.76596811 425.52299412 130.01382846 425.54629031 C112.80690683 425.57002533 95.60000704 425.58246718 78.39306879 425.58363223 C68.73523747 425.5845479 59.07746288 425.59027271 49.41964722 425.60845184 C41.19329937 425.62388202 32.96702578 425.62895619 24.74066621 425.62071374 C20.54666313 425.61681726 16.35280945 425.61768756 12.15882492 425.63177109 C8.31184479 425.64457065 4.46512537 425.64325988 0.61814529 425.63118038 C-1.41698295 425.62831863 -3.45211596 425.6401132 -5.48720789 425.65260243 C-20.31257246 425.57349707 -32.50149875 422.7257968 -43.56269836 412.51069641 C-54.51287424 400.80990364 -55.71104567 384.98231958 -55.63114929 369.6497345 C-55.63461554 368.23281925 -55.63938654 366.81590671 -55.64533103 365.39899969 C-55.65773806 361.54684425 -55.65171823 357.69491465 -55.64237237 353.84275889 C-55.6355395 349.6722676 -55.64608395 345.50181314 -55.65431213 341.33132935 C-55.66760676 333.17769234 -55.66479085 325.02413848 -55.65607421 316.8704983 C-55.64928119 310.24003396 -55.64838792 303.60959281 -55.65164566 296.97912598 C-55.65210536 296.03311605 -55.65256506 295.08710612 -55.65303869 294.11242923 C-55.65399793 292.19023994 -55.65497057 290.26805065 -55.65595646 288.34586138 C-55.66449785 270.34884619 -55.6546959 252.35187695 -55.63855536 234.35486931 C-55.62515333 218.93429519 -55.62748177 203.51378884 -55.64131165 188.09321594 C-55.65738961 170.15775072 -55.66367399 152.22232569 -55.65447485 134.28685427 C-55.65351927 132.3719918 -55.65257616 130.45712933 -55.65164566 128.54226685 C-55.65118283 127.60027682 -55.65072001 126.6582868 -55.65024316 125.68775162 C-55.64765991 119.07022624 -55.65200987 112.45272649 -55.65908432 105.83520508 C-55.66752418 97.7635351 -55.66516712 89.69195258 -55.64924209 81.62029254 C-55.64139271 77.50712073 -55.63821043 73.39409437 -55.64818954 69.28092384 C-55.65720664 65.50701952 -55.65208981 61.7333939 -55.63625689 57.95951444 C-55.63138088 55.96632376 -55.6410424 53.97311334 -55.65142858 51.97994375 C-55.5579101 37.46732814 -53.08012054 23.70588556 -43.25019836 12.51069641 C-31.05873625 1.31720796 -15.77921133 -0.04612107 0 0 Z " fill="#58B9F8" transform="translate(99.25019836425781,45.73930358886719)"/>
<path d="M0 0 C14.76010768 13.27405602 27.07873332 27.64257538 35.87109375 45.58203125 C36.71220703 47.19851562 36.71220703 47.19851562 37.5703125 48.84765625 C54.41526216 82.07869015 56.43214331 122.14594707 45.33422852 157.4609375 C38.95789705 176.72241213 29.43834404 194.38953743 15.87109375 209.58203125 C15.04609375 210.52691406 14.22109375 211.47179687 13.37109375 212.4453125 C-10.70008357 239.56208085 -43.41259349 255.03081069 -79.12890625 259.58203125 C-95.73550741 260.35842544 -112.94337019 260.72424823 -129.12890625 256.58203125 C-129.92119629 256.38335449 -130.71348633 256.18467773 -131.52978516 255.97998047 C-170.02423289 246.04184709 -202.21202864 221.33720478 -222.41601562 187.17553711 C-242.39570681 152.47271635 -246.92719937 112.41376634 -237.31640625 73.76953125 C-230.38955644 49.66824484 -218.33756905 28.76372021 -201.12890625 10.58203125 C-200.25878906 9.63585937 -199.38867188 8.6896875 -198.4921875 7.71484375 C-146.74648923 -47.29587946 -56.33763663 -47.79909438 0 0 Z " fill="#FDFEFE" transform="translate(351.12890625,143.41796875)"/>
<path d="M0 0 C1.41432448 -0.00302621 2.82864732 -0.00691803 4.24296731 -0.01159257 C8.10185429 -0.02182091 11.96064783 -0.01970401 15.81954229 -0.01541197 C19.99212657 -0.0129353 24.16468889 -0.02197057 28.33726501 -0.02944946 C36.50132125 -0.04217256 44.66534456 -0.04399313 52.82940904 -0.0416492 C59.46852319 -0.03986315 66.10762738 -0.04162183 72.74674034 -0.04587364 C73.69315674 -0.04646883 74.63957313 -0.04706402 75.61466881 -0.04767724 C77.5375827 -0.04888905 79.46049659 -0.05010318 81.38341048 -0.05131962 C99.40042998 -0.06218602 117.41743075 -0.06003697 135.4344513 -0.05393478 C151.89779385 -0.04876682 168.3610772 -0.06001947 184.82440803 -0.07903299 C201.75015521 -0.09842992 218.67587441 -0.10666412 235.60163277 -0.10290974 C245.09564073 -0.10100046 254.58959832 -0.10345857 264.08359718 -0.11762428 C272.16631349 -0.12956272 280.24894843 -0.13091543 288.33166591 -0.11883412 C292.45089666 -0.1129626 296.56997877 -0.11179786 300.68919945 -0.12383652 C304.46876826 -0.13475362 308.24806535 -0.13152355 312.02762177 -0.11757483 C314.02394275 -0.1137088 316.02027608 -0.12442719 318.01656801 -0.13587171 C331.26350655 -0.05735787 345.14193736 1.69026817 355.49980164 10.63569641 C356.61355164 11.93507141 356.61355164 11.93507141 357.74980164 13.26069641 C358.22933289 13.72733704 358.70886414 14.19397766 359.20292664 14.67475891 C366.72437062 22.38613835 369.86870815 33.72763714 369.8812294 44.29287815 C369.88507055 45.51113806 369.88891169 46.72939798 369.89286923 47.98457485 C369.89208905 49.333253 369.89121027 50.6819311 369.89024353 52.03060913 C369.89282806 53.46592823 369.89584146 54.90124662 369.89924693 56.336564 C369.90731011 60.28125277 369.90910613 64.22592334 369.9098444 68.17061937 C369.91169617 72.4250661 369.91924421 76.67950342 369.92597961 80.9339447 C369.93955931 90.23787534 369.94558728 99.54180166 369.94999027 108.84574056 C369.95275369 114.65694155 369.95699127 120.46814088 369.96149445 126.27934074 C369.97368737 142.37337801 369.98398616 158.46741394 369.98736954 174.56145573 C369.9875891 175.5914577 369.98780867 176.62145968 369.98803489 177.68267384 C369.98825317 178.71512467 369.98847144 179.74757551 369.98869634 180.81131274 C369.9891398 182.90340873 369.98958636 184.99550472 369.99003601 187.08760071 C369.99025744 188.12535003 369.99047887 189.16309935 369.99070701 190.23229562 C369.99465334 207.04009307 370.01210224 223.84784711 370.03539553 240.65562779 C370.05912526 257.91791519 370.07157215 275.18018083 370.07273746 292.4424848 C370.07365338 302.13214223 370.07938481 311.82174313 370.09755707 321.51138496 C370.11298004 329.76411175 370.11806562 338.01676454 370.10981897 346.269503 C370.10592004 350.47755885 370.10680485 354.68546579 370.12087631 358.89350319 C370.13366097 362.75215015 370.13237798 366.61053702 370.1202856 370.46918385 C370.11741899 372.51300441 370.12922975 374.55682965 370.14170766 376.60061413 C370.06711848 390.59647921 367.10881559 403.05576688 357.53886414 413.63179016 C348.8738667 421.52110006 337.31467351 425.37835504 325.73603058 425.39212418 C324.52187076 425.39596532 323.30771094 425.39980647 322.0567584 425.40376401 C320.71269951 425.40298382 319.36864068 425.40210505 318.02458191 425.40113831 C316.5941003 425.40372285 315.16361941 425.40673626 313.73313951 425.41014171 C309.80178292 425.41820478 305.8704446 425.4200009 301.93908072 425.42073917 C297.6989299 425.42259099 293.45878853 425.43013908 289.21864319 425.43687439 C279.94563616 425.45045435 270.67263346 425.4564822 261.39961815 425.46088505 C255.60717045 425.46364861 249.81472441 425.46788623 244.02227783 425.47238922 C227.97885493 425.48458254 211.93543336 425.49488102 195.89200592 425.49826431 C194.86522312 425.49848388 193.83844031 425.49870344 192.78054288 425.49892966 C191.75132245 425.49914794 190.72210202 425.49936622 189.6616931 425.49959111 C187.57615375 425.50003458 185.49061441 425.50048114 183.40507507 425.50093079 C182.37057868 425.50115222 181.33608228 425.50137365 180.27023751 425.50160179 C163.51808103 425.50554745 146.76596811 425.52299412 130.01382846 425.54629031 C112.80690683 425.57002533 95.60000704 425.58246718 78.39306879 425.58363223 C68.73523747 425.5845479 59.07746288 425.59027271 49.41964722 425.60845184 C41.19329937 425.62388202 32.96702578 425.62895619 24.74066621 425.62071374 C20.54666313 425.61681726 16.35280945 425.61768756 12.15882492 425.63177109 C8.31184479 425.64457065 4.46512537 425.64325988 0.61814529 425.63118038 C-1.41698295 425.62831863 -3.45211596 425.6401132 -5.48720789 425.65260243 C-20.31257246 425.57349707 -32.50149875 422.7257968 -43.56269836 412.51069641 C-54.51287424 400.80990364 -55.71104567 384.98231958 -55.63114929 369.6497345 C-55.63461554 368.23281925 -55.63938654 366.81590671 -55.64533103 365.39899969 C-55.65773806 361.54684425 -55.65171823 357.69491465 -55.64237237 353.84275889 C-55.6355395 349.6722676 -55.64608395 345.50181314 -55.65431213 341.33132935 C-55.66760676 333.17769234 -55.66479085 325.02413848 -55.65607421 316.8704983 C-55.64928119 310.24003396 -55.64838792 303.60959281 -55.65164566 296.97912598 C-55.65210536 296.03311605 -55.65256506 295.08710612 -55.65303869 294.11242923 C-55.65399793 292.19023994 -55.65497057 290.26805065 -55.65595646 288.34586138 C-55.66449785 270.34884619 -55.6546959 252.35187695 -55.63855536 234.35486931 C-55.62515333 218.93429519 -55.62748177 203.51378884 -55.64131165 188.09321594 C-55.65738961 170.15775072 -55.66367399 152.22232569 -55.65447485 134.28685427 C-55.65351927 132.3719918 -55.65257616 130.45712933 -55.65164566 128.54226685 C-55.65118283 127.60027682 -55.65072001 126.6582868 -55.65024316 125.68775162 C-55.64765991 119.07022624 -55.65200987 112.45272649 -55.65908432 105.83520508 C-55.66752418 97.7635351 -55.66516712 89.69195258 -55.64924209 81.62029254 C-55.64139271 77.50712073 -55.63821043 73.39409437 -55.64818954 69.28092384 C-55.65720664 65.50701952 -55.65208981 61.7333939 -55.63625689 57.95951444 C-55.63138088 55.96632376 -55.6410424 53.97311334 -55.65142858 51.97994375 C-55.5579101 37.46732814 -53.08012054 23.70588556 -43.25019836 12.51069641 C-31.05873625 1.31720796 -15.77921133 -0.04612107 0 0 Z M-38.87519836 17.94819641 C-44.01222051 24.46061481 -46.37058069 32.01318883 -46.38441944 40.20106506 C-46.38887729 41.42430072 -46.39333513 42.64753637 -46.39792806 43.90783978 C-46.39783876 45.26732064 -46.39764892 46.62680151 -46.39736938 47.98628235 C-46.40066905 49.42898819 -46.40439483 50.87169311 -46.40851086 52.31439686 C-46.41852758 56.28414591 -46.42224714 60.25387983 -46.42490017 64.22363973 C-46.42880426 68.50332739 -46.43838261 72.78300308 -46.44711304 77.06268311 C-46.46687571 87.40154 -46.47694395 97.74039787 -46.48584083 108.07926893 C-46.49022453 112.94912244 -46.49559117 117.81897486 -46.5008297 122.68882751 C-46.51784268 138.87975845 -46.53233616 155.0706887 -46.53957844 171.2616272 C-46.54148831 175.46330262 -46.54340864 179.66497804 -46.54536438 183.86665344 C-46.54584812 184.9109495 -46.54633186 185.95524555 -46.54683026 187.03118694 C-46.55512793 203.94252623 -46.58046011 220.85379472 -46.61294506 237.7651031 C-46.64603156 255.13131968 -46.66402869 272.49750029 -46.66722268 289.86374855 C-46.66938643 299.6126863 -46.67811519 309.36152085 -46.70368385 319.11042786 C-46.72541267 327.41442939 -46.73343058 335.71830265 -46.72371707 344.02232939 C-46.71917853 348.25675129 -46.72103242 352.49090866 -46.74047852 356.72529411 C-46.7581554 360.60810022 -46.75707621 364.49044971 -46.74158122 368.37326097 C-46.73921196 369.77173617 -46.74349311 371.17024337 -46.75540987 372.5686698 C-46.85211193 384.67456024 -45.27788585 395.42276561 -36.50801086 404.35444641 C-25.59358601 413.56939335 -11.74057398 413.56206871 1.88574219 413.52139282 C3.27546826 413.52442015 4.66519266 413.52831253 6.05491418 413.53298539 C9.84120236 413.54319931 13.62739516 413.54110058 17.41369092 413.5368048 C21.50992991 413.53432547 25.60614663 413.54336665 29.70237732 413.55084229 C37.71489868 413.56355802 45.72738649 413.56538688 53.73991624 413.56304202 C60.25647695 413.56125516 66.77302752 413.56301638 73.28958702 413.56726646 C74.68359704 413.56815925 74.68359704 413.56815925 76.10576889 413.56907007 C77.99405351 413.57028189 79.88233813 413.57149602 81.77062275 413.57271244 C99.45862092 413.58357599 117.14659999 413.58143114 134.83459922 413.5753276 C150.99327632 413.57015976 167.15189312 413.58141248 183.3105583 413.60042582 C199.92784868 413.61982794 216.54511057 413.62805604 233.16241235 413.62430257 C242.48149774 413.62239409 251.80053181 413.62484352 261.11960793 413.63901711 C269.05331884 413.65096219 276.98694686 413.65230086 284.92065898 413.64022694 C288.96306146 413.63436008 293.00531253 413.6331776 297.0477047 413.64522934 C300.75820512 413.65616241 304.46842906 413.65289786 308.17891695 413.63896766 C310.1356795 413.6351099 312.09245468 413.64580683 314.04918748 413.65726453 C326.77956897 413.58058084 340.12560664 412.60652323 349.67558289 403.40522766 C359.98657531 392.36840968 360.05312303 378.41778366 360.01049805 364.03536987 C360.01352529 362.63596883 360.01741762 361.23656944 360.02209061 359.83717293 C360.03230542 356.02422057 360.03020559 352.21136293 360.02591002 348.39840305 C360.0234309 344.27357226 360.03247154 340.14876359 360.03994751 336.02394104 C360.05266314 327.95594278 360.05449217 319.88797786 360.05214725 311.81997127 C360.05036063 305.25953374 360.05212109 298.69910629 360.05637169 292.13866997 C360.05726447 290.73546769 360.05726447 290.73546769 360.05817529 289.3039179 C360.0593871 287.40322781 360.06060124 285.50253772 360.06181767 283.60184764 C360.07268085 265.79850201 360.07053634 247.99517535 360.06443282 230.19182866 C360.0592632 213.92186965 360.0705225 197.65197051 360.08953104 181.38202334 C360.10892417 164.65400144 360.11716295 147.92600784 360.11340779 131.19797462 C360.11149819 121.81523698 360.11395995 112.4325503 360.12812233 103.04982185 C360.1400558 95.06335309 360.14141889 87.07696667 360.12933216 79.09049673 C360.12345764 75.01998868 360.12230439 70.94963111 360.13433456 66.87913322 C360.14524109 63.14529916 360.14203396 59.41174035 360.12807288 55.6779189 C360.12420143 53.7037717 360.13493382 51.72961205 360.14636976 49.75549418 C360.06776447 36.67355012 358.24031209 25.26112425 349.08573914 15.48335266 C342.59271427 9.42023127 334.55785408 7.14125864 325.80663967 7.12647533 C323.97086114 7.11978857 323.97086114 7.11978857 322.09799618 7.11296672 C320.7378263 7.11305601 319.37765642 7.11324586 318.01748657 7.11352539 C316.57406804 7.11022574 315.13065042 7.10649995 313.68723398 7.10238391 C309.71555432 7.09236723 305.74388978 7.08864765 301.77219927 7.0859946 C297.49048573 7.08209054 293.20878415 7.07251223 288.92707825 7.06378174 C278.58377726 7.04401966 268.24047529 7.0339512 257.89716014 7.02505395 C253.02568345 7.02067041 248.15420784 7.01530375 243.28273201 7.01006508 C227.08750986 6.99305265 210.89228839 6.97855881 194.69705868 6.97131634 C190.49434343 6.96940646 186.29162819 6.96748612 182.08891296 6.9655304 C181.0443546 6.96504666 179.99979624 6.96456292 178.92358459 6.96406452 C162.00510324 6.95576548 145.08669262 6.93043074 128.16824215 6.89794972 C110.79638034 6.86487028 93.42455447 6.84686675 76.052661 6.8436721 C66.29984277 6.84150776 56.54712766 6.83277036 46.79434013 6.80721092 C38.48774818 6.78549182 30.18128441 6.77745945 21.87466728 6.7871777 C17.63834408 6.79171897 13.4022853 6.78984642 9.16599846 6.77041626 C5.28262777 6.75275906 1.39971389 6.75380273 -2.48366182 6.76931355 C-3.88346511 6.77168578 -5.28330023 6.76738611 -6.68305493 6.7554849 C-19.07907791 6.6566753 -29.92722976 8.78718093 -38.87519836 17.94819641 Z " fill="#A6A6A6" transform="translate(99.25019836425781,45.73930358886719)"/>
<path d="M0 0 C1.03386841 0.17644043 1.03386841 0.17644043 2.08862305 0.35644531 C6.75958784 1.24420676 10.79782576 2.38299345 14.9375 4.6875 C16.09765625 6.859375 16.09765625 6.859375 15.9375 9.6875 C15.00482176 12.57156952 13.72700452 15.22872828 12.375 17.9375 C12.01164551 18.69385742 11.64829102 19.45021484 11.27392578 20.22949219 C8.8747744 25.12035317 6.22397042 29.58939929 2.7734375 33.828125 C1.69501704 35.71260649 1.69501704 35.71260649 2.5078125 37.94921875 C4.34771629 41.47318749 6.35414124 44.86537404 8.4375 48.25 C15.76645824 60.22687584 15.76645824 60.22687584 14.9375 67.6875 C9.54631967 73.07868033 -0.56742039 71.80892567 -7.75 71.875 C-28.39901334 71.85787455 -28.39901334 71.85787455 -36.0625 66.6875 C-34.80313766 55.00820818 -24.88493482 45.83052641 -17.0625 37.6875 C-18.38763764 34.70915667 -19.78432954 32.81020849 -22.1875 30.625 C-28.93790563 24.05818281 -36.80982235 15.25711877 -37.1875 5.4375 C-36.0625 2.6875 -36.0625 2.6875 -32.75 0.875 C-22.00859011 -2.5840981 -11.01728642 -1.91520228 0 0 Z " fill="#56D67C" transform="translate(267.0625,298.3125)"/>
<path d="M0 0 C3.62295037 3.30378569 5.74564652 6.61271092 6.2734375 11.56640625 C6.65413016 22.79683979 2.83325738 29.32786641 -4.5625 37.375 C-7.64339389 40.64723084 -10.81089496 43.83340629 -14 47 C-12.46279297 47.05607422 -12.46279297 47.05607422 -10.89453125 47.11328125 C-9.53381938 47.17897079 -8.17314389 47.24541709 -6.8125 47.3125 C-6.13896484 47.33505859 -5.46542969 47.35761719 -4.77148438 47.38085938 C-0.40048655 47.61540072 2.50557113 48.33475764 6 51 C7.2680264 53.5360528 7.27534899 55.48011164 7.375 58.3125 C7.42398438 59.25738281 7.47296875 60.20226562 7.5234375 61.17578125 C6.77827458 65.19632446 5.18450876 66.48068932 2 69 C-0.95698814 69.47608038 -3.32041279 69.65768244 -6.265625 69.59375 C-7.05845886 69.59379028 -7.85129272 69.59383057 -8.66815186 69.59387207 C-10.34248799 69.5885242 -12.01682411 69.57097246 -13.69091797 69.54199219 C-16.22833783 69.50035546 -18.7630792 69.50090987 -21.30078125 69.5078125 C-39.95308329 69.43374751 -39.95308329 69.43374751 -46.0625 64.25 C-47.56991585 60.63220195 -47.76136178 58.93370253 -47 55 C-42.47994408 48.59128222 -36.42421808 43.45662843 -30.56640625 38.3046875 C-22.62674718 31.23548438 -22.62674718 31.23548438 -16 23 C-15.92094936 20.66800612 -15.91201231 18.33167378 -16 16 C-19.22788118 14.9556855 -20.75917968 14.91470947 -24 16.0625 C-27.544532 18.35167691 -29.41028148 20.69091522 -32 24 C-35.24742327 25.62371163 -38.50225787 25.69420836 -42 25 C-45.0625 22.4375 -45.0625 22.4375 -47 19 C-47.34685714 14.31742867 -45.98297399 11.54345539 -43.1875 7.9375 C-32.66403967 -3.19100528 -13.47882897 -8.54181603 0 0 Z " fill="#3F99CC" transform="translate(276,144)"/>
<path d="M0 0 C1.07242699 -0.00786278 1.07242699 -0.00786278 2.16651917 -0.0158844 C3.67520858 -0.02229341 5.18394804 -0.02098206 6.69262695 -0.01245117 C8.99326163 -0.0039456 11.29140764 -0.03270495 13.59179688 -0.06445312 C15.06119718 -0.06606553 16.53060185 -0.06548685 18 -0.0625 C19.02522011 -0.07935097 19.02522011 -0.07935097 20.07115173 -0.09654236 C24.81583216 -0.02779064 27.25337987 1.05441645 30.56640625 4.43359375 C31.43553479 7.49983604 31.20122675 10.32240138 30.56640625 13.43359375 C28.69020012 15.93520193 27.32749322 17.05305027 24.56640625 18.43359375 C22.8593789 18.50355389 21.14972622 18.51799529 19.44140625 18.49609375 C18.53132813 18.48707031 17.62125 18.47804687 16.68359375 18.46875 C15.63558594 18.45134766 15.63558594 18.45134766 14.56640625 18.43359375 C14.56640625 19.09359375 14.56640625 19.75359375 14.56640625 20.43359375 C16.05140625 20.30984375 16.05140625 20.30984375 17.56640625 20.18359375 C22.21893675 20.21184798 25.81264086 21.72647574 29.56640625 24.43359375 C35.84509581 31.25488611 35.9961413 38.23522078 35.84375 47.1171875 C35.50995832 54.78111091 32.66992577 61.3223151 27.375 66.89453125 C20.64943707 72.61779646 14.24952732 73.98714426 5.546875 73.90234375 C1.321295 73.23777022 -1.38027536 71.63738619 -4.18359375 68.43359375 C-6.71068921 64.39024102 -7.22456144 60.08848406 -6.43359375 55.43359375 C-3.13144453 50.83059787 0.15819609 49.68164225 5.56640625 48.43359375 C6.95928431 47.2632307 6.95928431 47.2632307 6.75390625 43.99609375 C6.96205553 40.38326654 6.96205553 40.38326654 4.56640625 38.43359375 C1.83596037 38.1653857 -0.86678474 38.11895326 -3.609375 38.0703125 C-7.52113762 37.18840751 -8.9100119 35.51023585 -11.43359375 32.43359375 C-12.06469727 29.25146484 -12.06469727 29.25146484 -12.0625 25.70703125 C-12.06443359 24.42828125 -12.06636719 23.14953125 -12.06835938 21.83203125 C-12.04962769 20.84154785 -12.04962769 20.84154785 -12.03051758 19.83105469 C-11.99605878 17.80653908 -12.00990471 15.78635883 -12.02929688 13.76171875 C-11.95577987 4.05747387 -11.95577987 4.05747387 -9.86279297 1.55688477 C-6.58081339 0.03925783 -3.54772557 -0.01519296 0 0 Z " fill="#3E98CD" transform="translate(171.43359375,219.56640625)"/>
<path d="M0 0 C2.93359375 -0.36328125 2.93359375 -0.36328125 6.4375 -0.3125 C8.16806641 -0.30669922 8.16806641 -0.30669922 9.93359375 -0.30078125 C13 0 13 0 16 2 C16.2208564 4.95064148 16.28060989 7.68368231 16.1875 10.625 C16.16719727 11.82769531 16.16719727 11.82769531 16.14648438 13.0546875 C16.11109051 15.03674378 16.05728234 17.01845551 16 19 C17.13179688 18.97679687 18.26359375 18.95359375 19.4296875 18.9296875 C20.91145175 18.91093099 22.39322312 18.89273066 23.875 18.875 C24.62136719 18.85824219 25.36773437 18.84148437 26.13671875 18.82421875 C28.09194461 18.8066041 30.04742021 18.89679811 32 19 C34 21 34 21 34.265625 24.1875 C34.26046875 25.445625 34.2553125 26.70375 34.25 28 C34.25773437 29.8871875 34.25773437 29.8871875 34.265625 31.8125 C34 35 34 35 32 37 C29.25514407 37.14507695 26.61519457 37.18652423 23.875 37.125 C23.12089844 37.11597656 22.36679687 37.10695313 21.58984375 37.09765625 C19.72642746 37.0740687 17.86317407 37.03819719 16 37 C16.02320313 38.13179688 16.04640625 39.26359375 16.0703125 40.4296875 C16.08906901 41.91145175 16.10726934 43.39322312 16.125 44.875 C16.14175781 45.62136719 16.15851563 46.36773437 16.17578125 47.13671875 C16.1933959 49.09194461 16.10320189 51.04742021 16 53 C14 55 14 55 10.8125 55.265625 C8.9253125 55.25789063 8.9253125 55.25789063 7 55.25 C5.741875 55.25515625 4.48375 55.2603125 3.1875 55.265625 C0 55 0 55 -2 53 C-2.14507695 50.25514407 -2.18652423 47.61519457 -2.125 44.875 C-2.11597656 44.12089844 -2.10695312 43.36679687 -2.09765625 42.58984375 C-2.0740687 40.72642746 -2.03819719 38.86317407 -2 37 C-3.13179687 37.02320313 -4.26359375 37.04640625 -5.4296875 37.0703125 C-6.91145175 37.08906901 -8.39322312 37.10726934 -9.875 37.125 C-10.62136719 37.14175781 -11.36773437 37.15851563 -12.13671875 37.17578125 C-14.09194461 37.1933959 -16.04742021 37.10320189 -18 37 C-20 35 -20 35 -20.265625 31.8125 C-20.26046875 30.554375 -20.2553125 29.29625 -20.25 28 C-20.25515625 26.741875 -20.2603125 25.48375 -20.265625 24.1875 C-20 21 -20 21 -18 19 C-15.25514407 18.85492305 -12.61519457 18.81347577 -9.875 18.875 C-9.12089844 18.88402344 -8.36679688 18.89304688 -7.58984375 18.90234375 C-5.72642746 18.9259313 -3.86317407 18.96180281 -2 19 C-2.02320313 17.87980469 -2.04640625 16.75960937 -2.0703125 15.60546875 C-2.08907237 14.13281916 -2.10727234 12.66016237 -2.125 11.1875 C-2.14175781 10.44951172 -2.15851563 9.71152344 -2.17578125 8.95117188 C-2.21074628 5.08753574 -2.19397555 3.29096332 0 0 Z " fill="#F4B10A" transform="translate(249,228)"/>
<path d="M0 0 C1.11132797 -0.00630432 2.22265594 -0.01260864 3.36766052 -0.019104 C5.17545738 -0.01303131 5.17545738 -0.01303131 7.01977539 -0.00683594 C8.86932579 -0.00970612 8.86932579 -0.00970612 10.75624084 -0.01263428 C14.03818752 -0.01434715 17.31994602 -0.00627849 20.60186768 0.00488281 C22.61387167 0.00878216 24.62570095 0.00490101 26.63769531 -0.00195312 C30.49430486 -0.01428593 34.35065517 -0.0128161 38.20727539 -0.00683594 C39.41044907 -0.0108844 40.61362274 -0.01493286 41.85325623 -0.019104 C43.52497643 -0.00964752 43.52497643 -0.00964752 45.23046875 0 C46.21260849 0.00159119 47.19474823 0.00318237 48.20664978 0.00482178 C50.67993164 0.25878906 50.67993164 0.25878906 53.67993164 2.25878906 C54.03637695 4.3059082 54.03637695 4.3059082 54.00805664 6.79394531 C54.00290039 7.68533203 53.99774414 8.57671875 53.99243164 9.49511719 C53.97180664 10.42775391 53.95118164 11.36039063 53.92993164 12.32128906 C53.92477539 13.25779297 53.91961914 14.19429687 53.91430664 15.15917969 C53.83383503 22.10488567 53.83383503 22.10488567 52.67993164 23.25878906 C50.88029504 23.36301843 49.07656564 23.39733008 47.27392578 23.40405273 C46.11925308 23.41043259 44.96458038 23.41681244 43.7749176 23.42338562 C42.5176738 23.42449844 41.26042999 23.42561127 39.96508789 23.42675781 C38.68387558 23.43008621 37.40266327 23.43341461 36.08262634 23.43684387 C33.36643634 23.44284098 30.65027819 23.44468319 27.93408203 23.4440918 C24.44902572 23.44399016 20.96417309 23.45764122 17.47916508 23.47486401 C14.16196931 23.48863972 10.84481194 23.4880723 7.52758789 23.48925781 C6.27236832 23.49644333 5.01714874 23.50362885 3.72389221 23.5110321 C2.56606735 23.50795547 1.40824249 23.50487885 0.21533203 23.50170898 C-1.31902748 23.50384651 -1.31902748 23.50384651 -2.88438416 23.50602722 C-5.32006836 23.25878906 -5.32006836 23.25878906 -7.32006836 21.25878906 C-7.57885742 19.31933594 -7.57885742 19.31933594 -7.58569336 16.97753906 C-7.58827148 16.13578125 -7.59084961 15.29402344 -7.59350586 14.42675781 C-7.5819043 13.10611328 -7.5819043 13.10611328 -7.57006836 11.75878906 C-7.57780273 10.87835938 -7.58553711 9.99792969 -7.59350586 9.09082031 C-7.59092773 8.2490625 -7.58834961 7.40730469 -7.58569336 6.54003906 C-7.5834375 5.76724609 -7.58118164 4.99445313 -7.57885742 4.19824219 C-6.9706639 -0.35976665 -3.80867687 0.00617552 0 0 Z " fill="#77F079" transform="translate(311.320068359375,228.7412109375)"/>
<path d="M0 0 C1.66699196 -0.01429802 1.66699196 -0.01429802 3.36766052 -0.02888489 C5.17545738 -0.02751778 5.17545738 -0.02751778 7.01977539 -0.02612305 C8.86932579 -0.03255074 8.86932579 -0.03255074 10.75624084 -0.03910828 C14.03817875 -0.04633604 17.31993422 -0.04321695 20.60186768 -0.03753662 C22.6139247 -0.03784127 24.62568728 -0.04787627 26.63769531 -0.06152344 C30.49436358 -0.08595224 34.35053958 -0.09018108 38.20727539 -0.08862305 C40.0120359 -0.10243767 40.0120359 -0.10243767 41.85325623 -0.11653137 C43.52497643 -0.10718819 43.52497643 -0.10718819 45.23046875 -0.09765625 C46.70367836 -0.09860039 46.70367836 -0.09860039 48.20664978 -0.0995636 C50.67993164 0.2746582 50.67993164 0.2746582 52.49781799 1.55378723 C54.58774067 4.59620813 54.06667036 8.21713855 53.99243164 11.7746582 C53.9956543 12.54680664 53.99887695 13.31895508 54.00219727 14.11450195 C53.96517023 17.99897486 53.87781263 19.97783671 51.67993164 23.2746582 C49.28894043 23.64888 49.28894043 23.64888 46.25219727 23.64697266 C45.11762085 23.65320145 43.98304443 23.65943024 42.81408691 23.66584778 C41.58387817 23.65663803 40.35366943 23.64742828 39.08618164 23.63793945 C37.19977966 23.63868721 37.19977966 23.63868721 35.27526855 23.63945007 C32.61183304 23.63710572 29.94918718 23.62892414 27.28588867 23.61083984 C23.8691971 23.58815211 20.45294764 23.58760798 17.03620148 23.59435749 C13.78199477 23.59849917 10.52786685 23.5865277 7.27368164 23.57543945 C5.42836853 23.57680656 5.42836853 23.57680656 3.54577637 23.57820129 C2.41119995 23.56866928 1.27662354 23.55913727 0.10766602 23.54931641 C-0.89445923 23.54470901 -1.89658447 23.54010162 -2.92907715 23.53535461 C-5.32006836 23.2746582 -5.32006836 23.2746582 -7.32006836 21.2746582 C-7.57885742 19.33520508 -7.57885742 19.33520508 -7.58569336 16.9934082 C-7.58827148 16.15165039 -7.59084961 15.30989258 -7.59350586 14.44262695 C-7.5819043 13.12198242 -7.5819043 13.12198242 -7.57006836 11.7746582 C-7.57780273 10.89422852 -7.58553711 10.01379883 -7.59350586 9.10668945 C-7.59092773 8.26493164 -7.58834961 7.42317383 -7.58569336 6.5559082 C-7.5834375 5.78311523 -7.58118164 5.01032227 -7.57885742 4.21411133 C-6.97125208 -0.33948945 -3.80741931 0.01787576 0 0 Z " fill="#79EF7B" transform="translate(311.320068359375,259.725341796875)"/>
<path d="M0 0 C3 3 3 3 3.37374616 5.50434923 C3.37314907 6.51315881 3.37255198 7.52196839 3.3719368 8.56134796 C3.37852664 9.72544174 3.38511649 10.88953551 3.39190602 12.08890486 C3.38384962 13.37380576 3.37579321 14.65870666 3.36749268 15.98254395 C3.36951598 17.35655603 3.3728541 18.73056671 3.37739825 20.10457277 C3.38607105 23.88881545 3.37595806 27.67281387 3.36285591 31.4570353 C3.35198333 35.53479301 3.35836681 39.6125275 3.36264038 43.69029236 C3.36828218 51.68200186 3.35794299 59.67361565 3.34235242 67.66530883 C3.3248417 76.96529329 3.32339377 86.265259 3.32273683 95.56525737 C3.3210476 112.15501653 3.30521847 128.74473199 3.28125 145.33447266 C3.25799091 161.44482791 3.24382542 177.55515544 3.24023438 193.66552734 C3.24001161 194.65771249 3.23978884 195.64989764 3.23955932 196.672149 C3.23911673 198.67082563 3.23867471 200.66950226 3.23823325 202.66817889 C3.2379039 204.14696063 3.2379039 204.14696063 3.2375679 205.65561676 C3.23735192 206.63892799 3.23713593 207.62223922 3.2369134 208.63534775 C3.23321464 223.97051937 3.22185475 239.3056865 3.2094375 254.6408532 C3.20499845 260.20546563 3.20156174 265.77007765 3.19881538 271.33469117 C3.19438726 280.16066176 3.18662946 288.9866158 3.17204097 297.81257594 C3.16542367 301.84730231 3.1603664 305.88201404 3.15958023 309.91674614 C3.15879554 313.60654287 3.15341091 317.29630253 3.14426073 320.98608774 C3.14054787 322.96108676 3.14173574 324.93609308 3.1430676 326.91109514 C3.13922645 328.07518892 3.13538531 329.23928269 3.13142776 330.43865204 C3.13018127 331.44746162 3.12893477 332.4562712 3.1276505 333.49565077 C3 336 3 336 2 339 C1.34 339 0.68 339 0 339 C0 227.13 0 115.26 0 0 Z " fill="#B7B7B7" transform="translate(45,89)"/>
<path d="M0 0 C1.53957608 0.00056958 1.53957608 0.00056958 3.1102547 0.00115067 C4.28963346 -0.00084038 5.46901221 -0.00283143 6.68412971 -0.00488281 C7.9963574 -0.00196997 9.30858508 0.00094287 10.66057724 0.00394398 C12.05562302 0.0035084 13.45066871 0.00263374 14.84571397 0.00135481 C18.69719692 -0.00089276 22.54865233 0.0031347 26.40013176 0.00813287 C30.54671054 0.01243344 34.69328763 0.01099123 38.83986801 0.0102306 C46.03007831 0.00970511 53.22027957 0.01285448 60.41048759 0.01846844 C70.80644449 0.02658012 81.202397 0.02919832 91.59835672 0.03045643 C108.46329188 0.03264747 125.32822221 0.03930898 142.19315475 0.04875904 C158.58019878 0.05793181 174.96724149 0.0650133 191.35428756 0.06926686 C192.36362935 0.06952958 193.37297113 0.0697923 194.41289902 0.07006299 C199.47624447 0.07136798 204.53958992 0.0726317 209.60293537 0.07387489 C251.63813881 0.08424913 293.67333694 0.10186887 335.70853561 0.1241985 C335.70853561 0.7841985 335.70853561 1.4441985 335.70853561 2.1241985 C332.43186923 3.10302957 329.47114636 3.25043311 326.05816787 3.25283295 C324.89966654 3.2560574 323.74116521 3.25928184 322.54755777 3.262604 C321.27403373 3.2610554 320.00050969 3.25950679 318.68839401 3.25791126 C317.322483 3.25977918 315.95657252 3.26207981 314.5906629 3.26477659 C310.83349571 3.27090321 307.07635075 3.27075999 303.31917971 3.26958221 C299.26868909 3.26937843 295.21820564 3.27489477 291.16771835 3.27963978 C283.23132621 3.28795119 275.29494149 3.29069483 267.35854536 3.29125216 C260.90987465 3.29172701 254.4612064 3.29378018 248.01253647 3.29695278 C229.73970857 3.30576003 211.46688655 3.31037195 193.19405651 3.30962231 C192.20867348 3.30958235 191.22329045 3.3095424 190.20804733 3.30950123 C189.22146509 3.30946035 188.23488285 3.30941947 187.21840417 3.30937735 C171.21993092 3.30897067 155.22148117 3.31854559 139.22301471 3.3326396 C122.80604693 3.34698851 106.38909063 3.35391063 89.97211641 3.35304582 C80.75108259 3.35271338 71.53007344 3.35548122 62.30904526 3.36622387 C54.46011503 3.37530928 46.61122064 3.37752025 38.76228744 3.37071445 C34.75576181 3.36743953 30.74930503 3.36742742 26.74278587 3.3760677 C23.07762284 3.38389076 19.41258374 3.38254458 15.74742389 3.37378357 C13.78811676 3.37150576 11.82880592 3.37910994 9.86951345 3.38702321 C8.71101212 3.38242441 7.55251078 3.37782562 6.35890335 3.37308747 C4.85618495 3.37341352 4.85618495 3.37341352 3.32310861 3.37374616 C0.64391613 3.1180309 -0.99910109 2.49451245 -3.29146439 1.1241985 C-2.29146439 0.1241985 -2.29146439 0.1241985 0 0 Z " fill="#B7B7B7" transform="translate(90.29146438837051,46.875801503658295)"/>
<path d="M0 0 C0.33 0 0.66 0 1 0 C1.0228765 44.37542719 1.04050339 88.75085376 1.05106533 133.12628568 C1.05231607 138.36226664 1.05361039 143.59824758 1.05493164 148.83422852 C1.05532511 150.39784802 1.05532511 150.39784802 1.05572652 151.9930558 C1.06008076 168.88348014 1.06796697 185.77390109 1.0771528 202.66432341 C1.08649615 219.98856745 1.09205706 237.31280971 1.09408849 254.63705617 C1.0954623 265.33161714 1.09980523 276.02616851 1.10791647 286.72072653 C1.11319232 294.04906884 1.11480237 301.37740617 1.11350138 308.70575025 C1.11285932 312.93715803 1.11386069 317.16854902 1.11920547 321.39995384 C1.12406066 325.27192595 1.12432463 329.14386992 1.12089889 333.01584331 C1.1204753 334.41834617 1.12175316 335.82085076 1.12488318 337.22335019 C1.12888541 339.12699552 1.12614025 341.03065149 1.12304783 342.93429852 C1.12342755 343.99257908 1.12380727 345.05085964 1.1241985 346.1412093 C1.00576267 348.86735525 0.6160069 351.34621187 0 354 C-0.33 354 -0.66 354 -1 354 C-1.33 351.69 -1.66 349.38 -2 347 C-1.34 347 -0.68 347 0 347 C-0.66 346.34 -1.32 345.68 -2 345 C-2.25069833 342.5697037 -2.25069833 342.5697037 -2.25168228 339.43955421 C-2.25689778 338.25020102 -2.26211327 337.06084783 -2.26748681 335.83545363 C-2.26302537 334.51719442 -2.25856392 333.19893522 -2.25396729 331.84072876 C-2.25626971 330.43529485 -2.25944477 329.02986214 -2.26342177 327.62443197 C-2.2718086 323.74870399 -2.26762696 319.87307388 -2.26144934 315.99734545 C-2.25694158 311.8227524 -2.2639003 307.64817669 -2.26940918 303.47358704 C-2.27832329 295.28959121 -2.27637208 287.10563198 -2.2705839 278.92163469 C-2.26607471 272.27173182 -2.26545128 265.62183923 -2.26763153 258.97193527 C-2.267938 258.02696296 -2.26824446 257.08199065 -2.26856022 256.10838281 C-2.26919964 254.1889118 -2.26984807 252.26944079 -2.2705054 250.34996979 C-2.27621476 232.3313835 -2.26964163 214.31281752 -2.25890467 196.29423456 C-2.2499715 180.82375035 -2.25151809 165.35329616 -2.26074219 149.8828125 C-2.27143912 131.93362031 -2.27566233 113.98444595 -2.26951766 96.03525102 C-2.26888054 94.1220661 -2.2682518 92.20888118 -2.26763153 90.29569626 C-2.26732298 89.35428748 -2.26701443 88.4128787 -2.26669653 87.44294239 C-2.26496764 80.79982371 -2.26788892 74.15671632 -2.27259064 67.5135994 C-2.27819319 59.41941195 -2.27669634 51.3252633 -2.26602915 43.23108031 C-2.26076355 39.09900544 -2.25873072 34.96699532 -2.26532745 30.83492088 C-2.27127088 27.05494873 -2.26803849 23.27510159 -2.25737235 19.49514084 C-2.25406684 17.47410484 -2.26062373 15.45306023 -2.26748681 13.43203318 C-2.26227132 12.23746449 -2.25705582 11.04289581 -2.25168228 9.81212807 C-2.25135758 8.77885403 -2.25103287 7.74558 -2.25069833 6.68099463 C-1.99672694 3.96499752 -1.39443837 2.31881107 0 0 Z " fill="#A0A0A0" transform="translate(468,84)"/>
<path d="M0 0 C1.78701636 -0.01173486 1.78701636 -0.01173486 3.61013407 -0.02370679 C5.58315361 -0.01366855 5.58315361 -0.01366855 7.59603214 -0.00342751 C9.00233116 -0.0068822 10.40862748 -0.0116455 11.8149181 -0.01760924 C15.6884275 -0.030175 19.56171619 -0.02392368 23.43522656 -0.01465058 C27.60912895 -0.00788308 31.78299249 -0.0183299 35.95688725 -0.02659035 C44.13741852 -0.03995488 52.31786738 -0.03703776 60.49840193 -0.02835242 C67.14542431 -0.0215865 73.79242353 -0.02065442 80.43944836 -0.02392387 C81.85670359 -0.02461342 81.85670359 -0.02461342 83.30259024 -0.0253169 C85.22181972 -0.02627605 87.14104919 -0.02724869 89.06027866 -0.02823468 C107.07220274 -0.03679666 125.08408107 -0.02694202 143.09599764 -0.01083358 C158.56022986 0.00256816 174.02439453 0.00024426 189.48862553 -0.01358986 C207.43307024 -0.02963516 225.37747481 -0.03597031 243.3219257 -0.02675307 C245.23453334 -0.02579739 247.14714099 -0.02485428 249.05974865 -0.02392387 C250.47141933 -0.02322963 250.47141933 -0.02322963 251.91160862 -0.02252137 C258.55223961 -0.01992817 265.1928452 -0.02430963 271.83347225 -0.03136253 C279.92399372 -0.03976618 288.01442784 -0.03752146 296.10493927 -0.0215203 C300.23502302 -0.0136219 304.364961 -0.01057254 308.49504375 -0.02046776 C312.27318246 -0.029383 316.05103979 -0.02453455 319.82915283 -0.0085351 C321.84914723 -0.00357687 323.86916105 -0.01341219 325.8891353 -0.02370679 C327.08308729 -0.01588355 328.27703928 -0.00806031 329.50717163 0 C330.53990359 0.00048706 331.57263555 0.00097411 332.63666242 0.00147593 C335.31650639 0.37752342 335.31650639 0.37752342 339.31650639 3.37752342 C224.47650639 3.37752342 109.63650639 3.37752342 -8.68349361 3.37752342 C-5.20046071 -0.10550948 -4.68414091 0.00220948 0 0 Z " fill="#A0A0A0" transform="translate(91.68349361419678,467.6224765777588)"/>
<path d="M0 0 C1.11132797 -0.00630432 2.22265594 -0.01260864 3.36766052 -0.019104 C5.17545738 -0.01303131 5.17545738 -0.01303131 7.01977539 -0.00683594 C8.86932579 -0.00970612 8.86932579 -0.00970612 10.75624084 -0.01263428 C14.03818752 -0.01434715 17.31994602 -0.00627849 20.60186768 0.00488281 C22.61387167 0.00878216 24.62570095 0.00490101 26.63769531 -0.00195312 C30.49430486 -0.01428593 34.35065517 -0.0128161 38.20727539 -0.00683594 C39.41044907 -0.0108844 40.61362274 -0.01493286 41.85325623 -0.019104 C43.52497643 -0.00964752 43.52497643 -0.00964752 45.23046875 0 C46.21260849 0.00159119 47.19474823 0.00318237 48.20664978 0.00482178 C50.67993164 0.25878906 50.67993164 0.25878906 53.67993164 2.25878906 C54.03637695 4.3059082 54.03637695 4.3059082 54.00805664 6.79394531 C54.00290039 7.68533203 53.99774414 8.57671875 53.99243164 9.49511719 C53.97180664 10.42775391 53.95118164 11.36039063 53.92993164 12.32128906 C53.92477539 13.25779297 53.91961914 14.19429687 53.91430664 15.15917969 C53.83383503 22.10488567 53.83383503 22.10488567 52.67993164 23.25878906 C50.88029504 23.36301843 49.07656564 23.39733008 47.27392578 23.40405273 C46.11925308 23.41043259 44.96458038 23.41681244 43.7749176 23.42338562 C42.5176738 23.42449844 41.26042999 23.42561127 39.96508789 23.42675781 C38.68387558 23.43008621 37.40266327 23.43341461 36.08262634 23.43684387 C33.36643634 23.44284098 30.65027819 23.44468319 27.93408203 23.4440918 C24.44902572 23.44399016 20.96417309 23.45764122 17.47916508 23.47486401 C14.16196931 23.48863972 10.84481194 23.4880723 7.52758789 23.48925781 C6.27236832 23.49644333 5.01714874 23.50362885 3.72389221 23.5110321 C2.56606735 23.50795547 1.40824249 23.50487885 0.21533203 23.50170898 C-1.31902748 23.50384651 -1.31902748 23.50384651 -2.88438416 23.50602722 C-5.32006836 23.25878906 -5.32006836 23.25878906 -7.32006836 21.25878906 C-7.57885742 19.31933594 -7.57885742 19.31933594 -7.58569336 16.97753906 C-7.58827148 16.13578125 -7.59084961 15.29402344 -7.59350586 14.42675781 C-7.5819043 13.10611328 -7.5819043 13.10611328 -7.57006836 11.75878906 C-7.57780273 10.87835938 -7.58553711 9.99792969 -7.59350586 9.09082031 C-7.59092773 8.2490625 -7.58834961 7.40730469 -7.58569336 6.54003906 C-7.5834375 5.76724609 -7.58118164 4.99445313 -7.57885742 4.19824219 C-6.9706639 -0.35976665 -3.80867687 0.00617552 0 0 Z M-4.32006836 2.25878906 C-6.44369634 6.11256626 -6.55831365 8.9643358 -6.50756836 13.38378906 C-6.50112305 14.62386719 -6.49467773 15.86394531 -6.48803711 17.14160156 C-6.53269431 20.16557018 -6.53269431 20.16557018 -5.32006836 22.25878906 C13.48993164 22.25878906 32.29993164 22.25878906 51.67993164 22.25878906 C51.67993164 15.98878906 51.67993164 9.71878906 51.67993164 3.25878906 C50.6546528 2.01097321 50.6546528 2.01097321 48.47166443 2.13853455 C47.49681595 2.14075516 46.52196747 2.14297577 45.51757812 2.14526367 C43.86597939 2.14537697 43.86597939 2.14537697 42.18101501 2.14549255 C40.38417015 2.15323448 40.38417015 2.15323448 38.55102539 2.16113281 C37.33165787 2.16254776 36.11229034 2.16396271 34.85597229 2.16542053 C30.94310094 2.17103939 27.03028583 2.1835951 23.11743164 2.19628906 C20.47225017 2.20130163 17.82706781 2.20586496 15.18188477 2.20996094 C8.68121438 2.22101495 2.18057703 2.23777143 -4.32006836 2.25878906 Z " fill="#96EA98" transform="translate(311.320068359375,228.7412109375)"/>
<path d="M0 0 C3.92336246 0.44702028 7.72724523 0.94278079 11.59375 1.75390625 C33.23453594 6.23354894 56.63033596 5.56009355 78.03417969 0.25366211 C80.27633475 -0.0356572 81.85807928 0.32667937 84 1 C76.99822721 3.41492814 70.39139585 4.59248958 63 5 C63 5.66 63 6.32 63 7 C61.7934375 6.9690625 61.7934375 6.9690625 60.5625 6.9375 C58.06645115 6.70366379 58.06645115 6.70366379 57 8 C54.50245859 8.11327366 52.0336001 8.16417191 49.53515625 8.16796875 C48.4123954 8.17296135 48.4123954 8.17296135 47.26695251 8.17805481 C45.68066016 8.18312693 44.0943571 8.18546305 42.50805664 8.18530273 C40.07615631 8.18748773 37.64471051 8.20563581 35.21289062 8.22460938 C33.67448072 8.22754349 32.13606866 8.22952817 30.59765625 8.23046875 C29.50228294 8.24124702 29.50228294 8.24124702 28.38478088 8.25224304 C23.22882307 8.22882307 23.22882307 8.22882307 21 6 C18.4752323 5.49725496 18.4752323 5.49725496 15.625 5.3125 C14.66851562 5.22613281 13.71203125 5.13976562 12.7265625 5.05078125 C10.23230819 5.00432666 8.36308483 5.2552363 6 6 C5.67 4.68 5.34 3.36 5 2 C3.35 1.67 1.7 1.34 0 1 C0 0.67 0 0.34 0 0 Z " fill="#58A9DA" transform="translate(214,398)"/>
<path d="M0 0 C1.66699196 -0.01429802 1.66699196 -0.01429802 3.36766052 -0.02888489 C5.17545738 -0.02751778 5.17545738 -0.02751778 7.01977539 -0.02612305 C8.86932579 -0.03255074 8.86932579 -0.03255074 10.75624084 -0.03910828 C14.03817875 -0.04633604 17.31993422 -0.04321695 20.60186768 -0.03753662 C22.6139247 -0.03784127 24.62568728 -0.04787627 26.63769531 -0.06152344 C30.49436358 -0.08595224 34.35053958 -0.09018108 38.20727539 -0.08862305 C40.0120359 -0.10243767 40.0120359 -0.10243767 41.85325623 -0.11653137 C43.52497643 -0.10718819 43.52497643 -0.10718819 45.23046875 -0.09765625 C46.70367836 -0.09860039 46.70367836 -0.09860039 48.20664978 -0.0995636 C50.67993164 0.2746582 50.67993164 0.2746582 52.49781799 1.55158997 C54.595523 4.60923919 54.06659071 8.26269094 53.99243164 11.8371582 C53.9956543 12.61768555 53.99887695 13.39821289 54.00219727 14.20239258 C53.94710145 20.0074884 53.94710145 20.0074884 51.67993164 22.2746582 C51.34993164 16.0046582 51.01993164 9.7346582 50.67993164 3.2746582 C32.19993164 3.2746582 13.71993164 3.2746582 -5.32006836 3.2746582 C-5.65006836 9.2146582 -5.98006836 15.1546582 -6.32006836 21.2746582 C-6.65006836 21.2746582 -6.98006836 21.2746582 -7.32006836 21.2746582 C-7.3779868 18.14973569 -7.41363582 15.02495055 -7.44506836 11.8996582 C-7.46182617 11.01020508 -7.47858398 10.12075195 -7.49584961 9.2043457 C-7.50229492 8.35356445 -7.50874023 7.5027832 -7.51538086 6.6262207 C-7.52585449 5.84069824 -7.53632813 5.05517578 -7.54711914 4.24584961 C-7.01859837 -0.34261997 -3.80933852 0.01788477 0 0 Z " fill="#99ED9C" transform="translate(311.320068359375,259.725341796875)"/>
<path d="M0 0 C3.0390625 -0.29296875 3.0390625 -0.29296875 6.625 -0.1875 C7.81351562 -0.16042969 9.00203125 -0.13335937 10.2265625 -0.10546875 C11.14179688 -0.07066406 12.05703125 -0.03585938 13 0 C13.495 1.98 13.495 1.98 14 4 C13.34 4 12.68 4 12 4 C11.67 4.66 11.34 5.32 11 6 C8.36 5.67 5.72 5.34 3 5 C2.67 5.66 2.34 6.32 2 7 C1.34 6.67 0.68 6.34 0 6 C0.01160156 6.92683594 0.02320313 7.85367188 0.03515625 8.80859375 C0.04417969 10.00613281 0.05320313 11.20367187 0.0625 12.4375 C0.07410156 13.63246094 0.08570313 14.82742187 0.09765625 16.05859375 C0 19 0 19 -1 20 C-3.69235776 20.23678716 -6.36498156 20.42198025 -9.0625 20.5625 C-10.20041992 20.62727539 -10.20041992 20.62727539 -11.36132812 20.69335938 C-13.24065438 20.79973633 -15.12030244 20.90039934 -17 21 C-17 25.62 -17 30.24 -17 35 C-10.07 35.495 -10.07 35.495 -3 36 C-3 36.33 -3 36.66 -3 37 C-5.45862401 37.05383848 -7.9160755 37.09359038 -10.375 37.125 C-11.07367188 37.14175781 -11.77234375 37.15851563 -12.4921875 37.17578125 C-14.32897486 37.19344267 -16.16601963 37.10303261 -18 37 C-20 35 -20 35 -20.265625 31.8125 C-20.26046875 30.554375 -20.2553125 29.29625 -20.25 28 C-20.25515625 26.741875 -20.2603125 25.48375 -20.265625 24.1875 C-20 21 -20 21 -18 19 C-15.25514407 18.85492305 -12.61519457 18.81347577 -9.875 18.875 C-9.12089844 18.88402344 -8.36679688 18.89304688 -7.58984375 18.90234375 C-5.72642746 18.9259313 -3.86317407 18.96180281 -2 19 C-2.02320313 17.87980469 -2.04640625 16.75960937 -2.0703125 15.60546875 C-2.08907237 14.13281916 -2.10727234 12.66016237 -2.125 11.1875 C-2.14175781 10.44951172 -2.15851563 9.71152344 -2.17578125 8.95117188 C-2.21074628 5.08753574 -2.19397555 3.29096332 0 0 Z " fill="#EBB82F" transform="translate(249,228)"/>
<path d="M0 0 C0.66 0 1.32 0 2 0 C1.98952637 0.68288086 1.97905273 1.36576172 1.96826172 2.06933594 C1.77249086 16.86366552 2.14375176 31.31575056 4 46 C2 43 2 43 1 39.375 C0.67 38.26125 0.34 37.1475 0 36 C-0.66 35.67 -1.32 35.34 -2 35 C-1.76990234 33.52853516 -1.76990234 33.52853516 -1.53515625 32.02734375 C-0.94295181 27.88191268 -0.67071718 23.74129305 -0.4375 19.5625 C-0.39431641 18.83095703 -0.35113281 18.09941406 -0.30664062 17.34570312 C-0.20183179 15.56395285 -0.10054479 13.78199598 0 12 C-0.66 12 -1.32 12 -2 12 C-2.28571429 3.42857143 -2.28571429 3.42857143 0 0 Z " fill="#6BBCEB" transform="translate(108,240)"/>
<path d="M0 0 C4.67590297 0.54273874 9.26145494 1.21804779 13.88720703 2.10424805 C25.85885465 4.34668401 37.84605323 4.71990522 50 5 C50 5.33 50 5.66 50 6 C24.34565779 6.19792668 24.34565779 6.19792668 12.79296875 5.12109375 C10.23968956 5.01039213 8.41072365 5.21199106 6 6 C5.67 4.68 5.34 3.36 5 2 C3.35 1.67 1.7 1.34 0 1 C0 0.67 0 0.34 0 0 Z " fill="#71B1D6" transform="translate(214,398)"/>
<path d="M0 0 C-1.32 0.33 -2.64 0.66 -4 1 C-4 1.66 -4 2.32 -4 3 C-2.02 3 -0.04 3 2 3 C2 3.33 2 3.66 2 4 C-9.55 3.67 -21.1 3.34 -33 3 C-33 2.67 -33 2.34 -33 2 C-25.08 2 -17.16 2 -9 2 C-9 1.34 -9 0.68 -9 0 C-3.375 -1.125 -3.375 -1.125 0 0 Z " fill="#71BBE9" transform="translate(277,106)"/>
<path d="M0 0 C0.33 0 0.66 0 1 0 C1.23105878 12.8539779 1.03996736 25.28663202 -1 38 C-1.33 38 -1.66 38 -2 38 C-2 16 -2 16 -1 14 C-0.76970044 11.62876754 -0.58880058 9.25258057 -0.4375 6.875 C-0.35371094 5.59367188 -0.26992188 4.31234375 -0.18359375 2.9921875 C-0.09271484 1.51105469 -0.09271484 1.51105469 0 0 Z " fill="#D7F4FC" transform="translate(402,244)"/>
<path d="M0 0 C0.66 0 1.32 0 2 0 C1.875 1.75 1.875 1.75 1 4 C-0.96722008 5.38123963 -2.96868328 6.71488126 -5 8 C-6.93395001 10.90092502 -7.30131941 11.89674737 -7.625 15.1875 C-7.74875 16.445625 -7.8725 17.70375 -8 19 C-8.66 18.67 -9.32 18.34 -10 18 C-10.55917833 15.14197745 -10.74217898 13.77340566 -10 11 C-7.30236227 7.36033005 -4.22104933 4.17842675 -1 1 C-0.67 0.67 -0.34 0.34 0 0 Z " fill="#5A9EC4" transform="translate(239,188)"/>
<path d="M0 0 C0 3 0 3 -2.140625 5.30078125 C-3.08421875 6.19152344 -4.0278125 7.08226562 -5 8 C-6.94584793 10.03568701 -8.8465608 12.11218691 -10.75 14.1875 C-11.24371094 14.72052734 -11.73742187 15.25355469 -12.24609375 15.80273438 C-14.929262 18.68080594 -14.929262 18.68080594 -17 22 C-17.66 22 -18.32 22 -19 22 C-15.23684169 13.36454198 -6.64955013 6.48648215 0 0 Z " fill="#E2FAFD" transform="translate(158,146)"/>
<path d="M0 0 C0 0.66 0 1.32 0 2 C-11.47572816 8 -11.47572816 8 -18 8 C-18 8.66 -18 9.32 -18 10 C-20.31 10 -22.62 10 -25 10 C-22.42018041 8.28012028 -20.25063609 7.1971796 -17.40234375 6.0546875 C-16.07686523 5.52294922 -16.07686523 5.52294922 -14.72460938 4.98046875 C-13.80486328 4.61566406 -12.88511719 4.25085938 -11.9375 3.875 C-11.01388672 3.50246094 -10.09027344 3.12992187 -9.13867188 2.74609375 C-8.25630859 2.39417969 -7.37394531 2.04226563 -6.46484375 1.6796875 C-5.656521 1.35726074 -4.84819824 1.03483398 -4.01538086 0.70263672 C-2 0 -2 0 0 0 Z " fill="#72B9E5" transform="translate(323,388)"/>
<path d="M0 0 C0.33 0.99 0.66 1.98 1 3 C-0.65 4.32 -2.3 5.64 -4 7 C-3.01 7.33 -2.02 7.66 -1 8 C-1 8.66 -1 9.32 -1 10 C-5.62 9.01 -10.24 8.02 -15 7 C-15 6.34 -15 5.68 -15 5 C-14.32453125 4.95101562 -13.6490625 4.90203125 -12.953125 4.8515625 C-12.06109375 4.77679688 -11.1690625 4.70203125 -10.25 4.625 C-9.36828125 4.55539063 -8.4865625 4.48578125 -7.578125 4.4140625 C-4.97613712 3.99616748 -3.22566767 3.39354867 -1 2 C-0.67 1.34 -0.34 0.68 0 0 Z " fill="#DEF7FC" transform="translate(201,233)"/>
<path d="M0 0 C0.33 0.66 0.66 1.32 1 2 C-1 4 -3 6 -5 8 C-4.07316406 8.04898438 -3.14632813 8.09796875 -2.19140625 8.1484375 C-0.99386719 8.22320312 0.20367187 8.29796875 1.4375 8.375 C3.22994141 8.47941406 3.22994141 8.47941406 5.05859375 8.5859375 C6.51458984 8.79089844 6.51458984 8.79089844 8 9 C8.33 9.66 8.66 10.32 9 11 C3.06 10.67 -2.88 10.34 -9 10 C-2.97321429 2.90178571 -2.97321429 2.90178571 0 0 Z " fill="#DBF7FC" transform="translate(270,182)"/>
<path d="M0 0 C1.32 0 2.64 0 4 0 C4 0.66 4 1.32 4 2 C4.598125 2.061875 5.19625 2.12375 5.8125 2.1875 C8.90339529 3.33554682 9.5880344 5.10547052 11 8 C11 8.66 11 9.32 11 10 C7.81326038 8.59698853 5.67778594 6.92234929 3.25 4.4375 C2.63640625 3.81746094 2.0228125 3.19742187 1.390625 2.55859375 C0 1 0 1 0 0 Z " fill="#9F9F9F" transform="translate(52,453)"/>
<path d="M0 0 C0 0.33 0 0.66 0 1 C-0.71542969 1.04898437 -1.43085938 1.09796875 -2.16796875 1.1484375 C-9.85145866 1.72494774 -17.40052564 2.73750668 -25 4 C-24 2 -24 2 -20.9375 0.875 C-14.13456082 -0.72275452 -6.93869035 -0.15157333 0 0 Z " fill="#85D9A0" transform="translate(258,297)"/>
<path d="M0 0 C0.66 0 1.32 0 2 0 C2 1.32 2 2.64 2 4 C-3.22727273 9 -3.22727273 9 -6 9 C-6.33 9.66 -6.66 10.32 -7 11 C-7.66 10.67 -8.32 10.34 -9 10 C-7.8758824 8.70756532 -6.75067408 7.41607925 -5.625 6.125 C-4.99851562 5.40570313 -4.37203125 4.68640625 -3.7265625 3.9453125 C-2.52573166 2.5923402 -1.2791655 1.2791655 0 0 Z " fill="#999999" transform="translate(60,55)"/>
<path d="M0 0 C0.66 0.33 1.32 0.66 2 1 C1.8125 2.8125 1.8125 2.8125 1 5 C-0.65848177 6.01351664 -2.32665961 7.01120795 -4 8 C-5.81306766 9.91133691 -7.37912573 11.91601879 -9 14 C-9.66 13.67 -10.32 13.34 -11 13 C-10.45730469 12.39671875 -9.91460937 11.7934375 -9.35546875 11.171875 C-8.64003906 10.37265625 -7.92460937 9.5734375 -7.1875 8.75 C-6.47980469 7.96109375 -5.77210938 7.1721875 -5.04296875 6.359375 C-3.25831065 4.2983167 -1.60240938 2.20394477 0 0 Z " fill="#6FBBE8" transform="translate(376,341)"/>
<path d="M0 0 C0 3 0 3 -2 5.0625 C-2.66 5.701875 -3.32 6.34125 -4 7 C-4 7.66 -4 8.32 -4 9 C-6.31 9 -8.62 9 -11 9 C-7.67149253 5.40521193 -4.01028669 2.77635232 0 0 Z " fill="#6DBCEB" transform="translate(346,372)"/>
<path d="M0 0 C0.89203125 0.01804688 1.7840625 0.03609375 2.703125 0.0546875 C3.71632813 0.08949219 3.71632813 0.08949219 4.75 0.125 C4.42 1.115 4.09 2.105 3.75 3.125 C1.77 3.455 -0.21 3.785 -2.25 4.125 C-2.25 3.465 -2.25 2.805 -2.25 2.125 C-2.91 1.795 -3.57 1.465 -4.25 1.125 C-4.58 2.115 -4.91 3.105 -5.25 4.125 C-6.57 3.465 -7.89 2.805 -9.25 2.125 C-6.03817851 0.21891902 -3.71117397 -0.09766247 0 0 Z " fill="#9D9D9D" transform="translate(83.25,46.875)"/>
<path d="M0 0 C4.67105792 1.55701931 8.08705685 4.08447373 12 7 C11.01 7.495 11.01 7.495 10 8 C9.01 7.34 8.02 6.68 7 6 C4.35367713 6.3121764 4.35367713 6.3121764 2 7 C2 6.01 2 5.02 2 4 C1.34 3.67 0.68 3.34 0 3 C0 2.01 0 1.02 0 0 Z " fill="#6BB9E7" transform="translate(168,375)"/>
<path d="M0 0 C0.66 0.33 1.32 0.66 2 1 C-3.96583144 8.66742597 -3.96583144 8.66742597 -9 10 C-8.67 8.68 -8.34 7.36 -8 6 C-6.68 6 -5.36 6 -4 6 C-4 5.34 -4 4.68 -4 4 C-3.34 4 -2.68 4 -2 4 C-1.34 2.68 -0.68 1.36 0 0 Z " fill="#589BC0" transform="translate(201,280)"/>
<path d="M0 0 C3.875 1.875 3.875 1.875 5 3 C5.07179964 4.51928038 5.08392007 6.04167482 5.0625 7.5625 C5.05347656 8.38878906 5.04445312 9.21507812 5.03515625 10.06640625 C5.01775391 11.02353516 5.01775391 11.02353516 5 12 C4.01 12.495 4.01 12.495 3 13 C3 10.03 3 7.06 3 4 C2.34 3.67 1.68 3.34 1 3 C1 3.66 1 4.32 1 5 C0.01 5 -0.98 5 -2 5 C-1.125 1.125 -1.125 1.125 0 0 Z " fill="#4A95BF" transform="translate(197,221)"/>
<path d="M0 0 C5.4611399 0.35233161 5.4611399 0.35233161 8 1 C9.5 3.0625 9.5 3.0625 10 5 C8.68 5.33 7.36 5.66 6 6 C5.67 4.68 5.34 3.36 5 2 C3.35 1.67 1.7 1.34 0 1 C0 0.67 0 0.34 0 0 Z " fill="#5BAEE0" transform="translate(214,398)"/>
<path d="M0 0 C0.99 0.495 0.99 0.495 2 1 C4.82133774 1.23511148 7.64124555 1.38206228 10.46875 1.5234375 C11.72171875 1.75933594 11.72171875 1.75933594 13 2 C13.99 3.485 13.99 3.485 15 5 C12.83125748 4.49396008 11.00032373 4.00016187 9 3 C9 3.66 9 4.32 9 5 C6.03 4.01 3.06 3.02 0 2 C0 1.34 0 0.68 0 0 Z " fill="#E9FBFC" transform="translate(163,255)"/>
<path d="M0 0 C-2 2 -2 2 -5.0390625 2.1953125 C-6.22242188 2.17210938 -7.40578125 2.14890625 -8.625 2.125 C-9.81351563 2.10695313 -11.00203125 2.08890625 -12.2265625 2.0703125 C-13.14179688 2.04710938 -14.05703125 2.02390625 -15 2 C-9.91958167 -0.67677955 -5.62417505 -1.48875222 0 0 Z " fill="#E0F9FD" transform="translate(238,111)"/>
<path d="M0 0 C0.66 0.33 1.32 0.66 2 1 C2 3.31 2 5.62 2 8 C2.66 8.33 3.32 8.66 4 9 C3.01 10.485 3.01 10.485 2 12 C1.4654744 10.75579353 0.94791389 9.50429064 0.4375 8.25 C0.14746094 7.55390625 -0.14257812 6.8578125 -0.44140625 6.140625 C-1.07831803 3.69987216 -0.80248831 2.3596345 0 0 Z " fill="#9B9B9B" transform="translate(47,437)"/>
<path d="M0 0 C0.33 0 0.66 0 1 0 C1 4.29 1 8.58 1 13 C-0.65 12.67 -2.3 12.34 -4 12 C-4 11.34 -4 10.68 -4 10 C-2.68 10 -1.36 10 0 10 C0 6.7 0 3.4 0 0 Z " fill="#F3B016" transform="translate(281,251)"/>
<path d="M0 0 C0.66 0.33 1.32 0.66 2 1 C-1 4 -4 7 -7 10 C-7.33 8.68 -7.66 7.36 -8 6 C-7.01 5.67 -6.02 5.34 -5 5 C-3.29413425 3.37347684 -1.6222454 1.70993434 0 0 Z " fill="#EAFBFB" transform="translate(237,188)"/>
<path d="M0 0 C5.75 0.875 5.75 0.875 8 2 C8.625 4.0625 8.625 4.0625 9 6 C5.06326356 4.68775452 2.77280706 3.08089673 0 0 Z " fill="#EBFAFC" transform="translate(170,375)"/>
<path d="M0 0 C3.875 1.75 3.875 1.75 5 4 C5.07033769 5.87379605 5.0843022 7.75001102 5.0625 9.625 C5.05347656 10.62789062 5.04445313 11.63078125 5.03515625 12.6640625 C5.02355469 13.43492187 5.01195312 14.20578125 5 15 C4.67 15 4.34 15 4 15 C3.93941406 14.39671875 3.87882812 13.7934375 3.81640625 13.171875 C3.73261719 12.37265625 3.64882813 11.5734375 3.5625 10.75 C3.48128906 9.96109375 3.40007812 9.1721875 3.31640625 8.359375 C3.02365007 6.17635361 2.57935581 4.1226818 2 2 C1.34 2 0.68 2 0 2 C0 1.34 0 0.68 0 0 Z " fill="#5E9CC0" transform="translate(278,193)"/>
<path d="M0 0 C0.68359375 1.765625 0.68359375 1.765625 1 4 C-0.21484375 5.921875 -0.21484375 5.921875 -1.9375 7.75 C-2.50339844 8.36359375 -3.06929687 8.9771875 -3.65234375 9.609375 C-4.31943359 10.29773438 -4.31943359 10.29773438 -5 11 C-5.66 10.67 -6.32 10.34 -7 10 C-6.57847656 9.44570313 -6.15695313 8.89140625 -5.72265625 8.3203125 C-5.17480469 7.59585937 -4.62695312 6.87140625 -4.0625 6.125 C-3.51722656 5.40570313 -2.97195312 4.68640625 -2.41015625 3.9453125 C-0.96035376 2.05642921 -0.96035376 2.05642921 0 0 Z " fill="#E3F9FD" transform="translate(204,277)"/>
<path d="M0 0 C-0.33 0.66 -0.66 1.32 -1 2 C-2.98 2 -4.96 2 -7 2 C-7.33 2.99 -7.66 3.98 -8 5 C-8.66 5 -9.32 5 -10 5 C-7.62417533 -0.26075462 -5.61350876 -0.1220328 0 0 Z " fill="#4D98BF" transform="translate(176,270)"/>
<path d="M0 0 C0.33 0 0.66 0 1 0 C1.28571429 7.42857143 1.28571429 7.42857143 -1 11 C-1.66 11 -2.32 11 -3 11 C-2.01 7.37 -1.02 3.74 0 0 Z " fill="#DFF9FC" transform="translate(118,204)"/>
<path d="M0 0 C1.32 0.66 2.64 1.32 4 2 C2.02 3.32 0.04 4.64 -2 6 C-1.125 1.125 -1.125 1.125 0 0 Z " fill="#E8F9FB" transform="translate(346,368)"/>
<path d="M0 0 C2.97 0 5.94 0 9 0 C8.01 1.485 8.01 1.485 7 3 C3.375 3.1875 3.375 3.1875 0 3 C0 2.01 0 1.02 0 0 Z " fill="#9C9C9C" transform="translate(426,47)"/>
<path d="M0 0 C2.0625 0.4375 2.0625 0.4375 4 1 C1.03 3.475 1.03 3.475 -2 6 C-1.125 1.125 -1.125 1.125 0 0 Z " fill="#E1F7FC" transform="translate(250,174)"/>
<path d="M0 0 C0 3.10551666 -0.5393715 4.35261084 -2 7 C-3.32 6.67 -4.64 6.34 -6 6 C-5.34 6 -4.68 6 -4 6 C-3.71125 5.38125 -3.4225 4.7625 -3.125 4.125 C-2 2 -2 2 0 0 Z " fill="#D8F2F9" transform="translate(248,162)"/>
<path d="M0 0 C2.95409701 1.37154504 5.44008376 2.98863724 8 5 C7.67 5.99 7.34 6.98 7 8 C5.83035398 6.8572081 4.66435444 5.71068285 3.5 4.5625 C2.8503125 3.92441406 2.200625 3.28632813 1.53125 2.62890625 C0 1 0 1 0 0 Z " fill="#7ABEE5" transform="translate(353,145)"/>
<path d="M0 0 C3.34373475 0.55728913 6.03312999 1.35173889 9 3 C9 3.66 9 4.32 9 5 C5.54074837 3.7508258 2.85306797 2.32472205 0 0 Z " fill="#75BDEA" transform="translate(324,125)"/>
</svg>
